<svg width="240" height="94" viewBox="0 0 240 94" fill="none" xmlns="http://www.w3.org/2000/svg">
<rect y="0.0517883" width="93.8961" height="93.8961" rx="15.0234" fill="url(#paint0_linear_510_1094)"/>
<path d="M78.1511 26.3723C78.2921 26.3622 78.438 26.3522 78.584 26.3522C78.438 26.3522 78.2971 26.3572 78.1511 26.3723Z" fill="#EAEAEA"/>
<path d="M76.2182 26.9804C76.0067 27.1161 75.8205 27.2769 75.6645 27.4578C75.8155 27.2769 76.0067 27.1161 76.2182 26.9804Z" fill="#EAEAEA"/>
<path d="M50.2944 56.8022C50.3347 56.4956 50.3498 56.179 50.3296 55.8574C50.3246 54.2391 50.3196 52.6762 50.3145 51.1735L50.2944 51.1936V56.8022Z" fill="#EAEAEA"/>
<path d="M76.9229 26.6386C77.1746 26.5482 77.4464 26.4778 77.7283 26.4276C77.4514 26.4728 77.1796 26.5432 76.9229 26.6386Z" fill="#EAEAEA"/>
<path d="M36.1093 62.8982C36.0892 62.868 36.069 62.8379 36.0489 62.7977C36.069 62.8329 36.0892 62.863 36.1093 62.8982Z" fill="#EAEAEA"/>
<path d="M43.5794 41.5797C43.3931 42.5044 43.1112 43.3889 42.7287 44.2081C43.1112 43.3839 43.3931 42.5044 43.5794 41.5797Z" fill="#EAEAEA"/>
<path d="M43.5794 41.5797C43.3931 42.5044 43.1112 43.3889 42.7287 44.2081C43.1112 43.3839 43.3931 42.5044 43.5794 41.5797Z" fill="#EAEAEA"/>
<path d="M41.8931 57.3349C40.5088 54.4904 38.9987 50.6408 35.9432 49.892C39.3057 50.9021 40.383 54.601 41.8931 57.3349Z" fill="#EAEAEA"/>
<path d="M41.8931 57.3349C40.5088 54.4904 38.9987 50.6408 35.9432 49.892C39.3057 50.9021 40.383 54.601 41.8931 57.3349Z" fill="#EAEAEA"/>
<path d="M35.9432 49.892C37.5389 49.4648 38.9181 48.7311 40.0558 47.7561C38.9181 48.7261 37.5389 49.4598 35.9432 49.892Z" fill="#EAEAEA"/>
<path d="M35.9432 49.892C37.5389 49.4648 38.9181 48.7311 40.0558 47.7561C38.9181 48.7261 37.5389 49.4598 35.9432 49.892Z" fill="#EAEAEA"/>
<path d="M22.9763 50.6358C23.9629 50.6911 25.5183 50.5855 26.9278 50.6458C25.5183 50.5805 23.9579 50.681 22.9763 50.6358Z" fill="#EAEAEA"/>
<path d="M22.9763 50.6358C23.9629 50.6911 25.5183 50.5855 26.9278 50.6458C25.5183 50.5805 23.9579 50.681 22.9763 50.6358Z" fill="#EAEAEA"/>
<path d="M22.9209 51.4801C22.9259 51.1383 22.941 50.8519 22.9712 50.6408C22.941 50.8569 22.9259 51.1383 22.9209 51.4801Z" fill="#EAEAEA"/>
<path d="M22.9209 51.4801C22.9259 51.1383 22.941 50.8519 22.9712 50.6408C22.941 50.8569 22.9259 51.1383 22.9209 51.4801Z" fill="#EAEAEA"/>
<path d="M29.4497 51.1534H29.4597V51.1635L29.4497 51.1534Z" fill="#EAEAEA"/>
<path d="M29.4497 51.1534H29.4597V51.1635L29.4497 51.1534Z" fill="#EAEAEA"/>
<path d="M23.0568 58.5963C23.0568 58.9782 23.0568 59.3602 23.0417 59.7321C23.0518 59.3602 23.0568 58.9782 23.0568 58.5963Z" fill="#EAEAEA"/>
<path d="M23.0568 58.5963C23.0568 58.9782 23.0568 59.3602 23.0417 59.7321C23.0518 59.3602 23.0568 58.9782 23.0568 58.5963Z" fill="#EAEAEA"/>
<path d="M22.9662 54.1235C22.9763 54.4552 22.9863 54.802 22.9964 55.1588C22.9863 54.807 22.9763 54.4603 22.9662 54.1235Z" fill="#EAEAEA"/>
<path d="M22.9662 54.1235C22.9763 54.4552 22.9863 54.802 22.9964 55.1588C22.9863 54.807 22.9763 54.4603 22.9662 54.1235Z" fill="#EAEAEA"/>
<path d="M23.0115 55.7418C23.0216 56.1086 23.0316 56.4805 23.0367 56.8524C23.0266 56.4805 23.0216 56.1086 23.0115 55.7418Z" fill="#EAEAEA"/>
<path d="M23.0115 55.7418C23.0216 56.1086 23.0316 56.4805 23.0367 56.8524C23.0266 56.4805 23.0216 56.1086 23.0115 55.7418Z" fill="#EAEAEA"/>
<path d="M33.6226 57.8575C32.8021 56.1539 31.9112 54.3748 31.1108 53.0732C31.9162 54.3748 32.8021 56.1539 33.6226 57.8575Z" fill="#EAEAEA"/>
<path d="M33.6226 57.8575C32.8021 56.1539 31.9112 54.3748 31.1108 53.0732C31.9162 54.3748 32.8021 56.1539 33.6226 57.8575Z" fill="#EAEAEA"/>
<path d="M22.5484 63.9284C22.4779 64.1496 22.3924 64.3506 22.3018 64.5164C22.3924 64.3506 22.4779 64.1546 22.5484 63.9284Z" fill="#EAEAEA"/>
<path d="M22.5484 63.9284C22.4779 64.1496 22.3924 64.3506 22.3018 64.5164C22.3924 64.3506 22.4779 64.1546 22.5484 63.9284Z" fill="#EAEAEA"/>
<path d="M17.0415 65.617C16.8049 65.5015 16.5885 65.3557 16.4072 65.1899C16.5935 65.3557 16.8049 65.4964 17.0415 65.617Z" fill="#EAEAEA"/>
<path d="M17.0415 65.617C16.8049 65.5015 16.5885 65.3557 16.4072 65.1899C16.5935 65.3557 16.8049 65.4964 17.0415 65.617Z" fill="#EAEAEA"/>
<path d="M21.0081 65.6572C20.8319 65.7377 20.6507 65.808 20.4544 65.8633C20.6457 65.808 20.8319 65.7377 21.0081 65.6572Z" fill="#EAEAEA"/>
<path d="M21.0081 65.6572C20.8319 65.7377 20.6507 65.808 20.4544 65.8633C20.6457 65.808 20.8319 65.7377 21.0081 65.6572Z" fill="#EAEAEA"/>
<path d="M22.8756 62.3152C22.8353 62.6268 22.79 62.9183 22.7347 63.1847C22.79 62.9133 22.8353 62.6218 22.8756 62.3152Z" fill="#EAEAEA"/>
<path d="M22.8756 62.3152C22.8353 62.6268 22.79 62.9183 22.7347 63.1847C22.79 62.9133 22.8353 62.6218 22.8756 62.3152Z" fill="#EAEAEA"/>
<path d="M54.1804 26.3572C55.2778 26.3572 56.1335 26.6336 56.7627 27.1412C56.1335 26.6386 55.2778 26.3622 54.1804 26.3572Z" fill="#EAEAEA"/>
<path d="M54.1804 26.3572C55.2778 26.3572 56.1335 26.6336 56.7627 27.1412C56.1335 26.6386 55.2778 26.3622 54.1804 26.3572Z" fill="#EAEAEA"/>
<path d="M34.715 43.0371C34.3576 43.3487 33.9347 43.6 33.4616 43.806C33.97 43.61 34.4029 43.3638 34.715 43.0371Z" fill="#EAEAEA"/>
<path d="M34.715 43.0371C34.3576 43.3487 33.9347 43.6 33.4616 43.806C33.97 43.61 34.4029 43.3638 34.715 43.0371Z" fill="#EAEAEA"/>
<path d="M52.2676 26.7492C51.427 27.1513 50.8632 27.8448 50.5612 28.7846C50.8783 27.9604 51.4572 27.1965 52.2676 26.7492Z" fill="#EAEAEA"/>
<path d="M52.2676 26.7492C51.427 27.1513 50.8632 27.8448 50.5612 28.7846C50.8783 27.9604 51.4572 27.1965 52.2676 26.7492Z" fill="#EAEAEA"/>
<path d="M50.2944 30.7043V51.1936L50.3145 51.1735C50.2894 40.8761 50.3145 33.4182 50.2944 30.7043Z" fill="#EAEAEA"/>
<path d="M50.2944 30.7043V51.1936L50.3145 51.1735C50.2894 40.8761 50.3145 33.4182 50.2944 30.7043Z" fill="#EAEAEA"/>
<path d="M25.6442 44.4141C27.0385 44.4493 28.6292 44.4996 30.1091 44.4141C30.0839 44.4141 30.0638 44.4141 30.0437 44.4141H25.6442Z" fill="#EAEAEA"/>
<path d="M25.6442 44.4141C27.0385 44.4493 28.6292 44.4996 30.1091 44.4141C30.0839 44.4141 30.0638 44.4141 30.0437 44.4141H25.6442Z" fill="#EAEAEA"/>
<path d="M36.2805 38.3281C36.1697 36.9009 35.6462 35.549 34.715 34.8354C35.6512 35.549 36.1697 36.9009 36.2855 38.3281H36.2805Z" fill="#EAEAEA"/>
<path d="M36.2805 38.3281C36.1697 36.9009 35.6462 35.549 34.715 34.8354C35.6512 35.549 36.1697 36.9009 36.2855 38.3281H36.2805Z" fill="#EAEAEA"/>
<path d="M80.6076 26.7794C80.8442 26.895 81.0556 27.0306 81.2418 27.1965C81.0556 27.0357 80.8442 26.895 80.6076 26.7794Z" fill="#EAEAEA"/>
<path d="M50.2944 58.2294V56.8022C50.229 57.3047 50.1031 57.7922 49.8917 58.2294H50.2944Z" fill="#EAEAEA"/>
<path d="M42.2354 58.0133C42.2706 58.0837 42.3109 58.1591 42.3461 58.2244H42.4317C42.3763 58.144 42.326 58.0636 42.2756 57.9782L42.2354 58.0083V58.0133Z" fill="#EAEAEA"/>
<path d="M41.2991 66.1146C44.0576 67.0594 47.4403 67.4162 50.4957 66.2101C48.1802 66.1598 45.1801 66.0392 41.2991 66.1146Z" fill="#EAEAEA"/>
<path d="M58.1168 49.4799H74.6275V61.7021C74.6275 62.1544 74.6678 62.5816 74.7433 62.9736C78.2921 62.8982 81.0808 60.6015 82.4449 57.355C82.5456 48.1381 83.1295 27.7041 81.4985 27.4528C81.423 27.3573 81.3375 27.2719 81.2418 27.1915C81.0556 27.0306 80.8442 26.8899 80.6076 26.7743C80.371 26.6587 80.1143 26.5683 79.8475 26.4979C79.4448 26.3974 79.0119 26.3472 78.579 26.3472C78.433 26.3472 78.2921 26.3522 78.1461 26.3673C78.0051 26.3773 77.8592 26.3974 77.7232 26.4225C77.4464 26.4678 77.1746 26.5381 76.9179 26.6336C76.6662 26.7241 76.4245 26.8397 76.2131 26.9754C76.0017 27.1111 75.8155 27.2719 75.6594 27.4528C73.6862 29.1263 74.9698 40.077 74.6225 42.429H58.887C56.0782 45.5951 53.1989 48.4999 50.3045 51.1685C50.3045 52.6711 50.3145 54.2341 50.3196 55.8523C50.3397 56.174 50.3196 56.4856 50.2843 56.7971V58.2244H49.8816C49.5494 58.928 49.041 59.521 48.3866 59.923C45.2606 61.1091 43.6398 60.0437 42.4216 58.2244H42.336C42.3008 58.154 42.2605 58.0837 42.2253 58.0133C40.096 59.6667 37.9919 61.1995 35.9281 62.6117C35.9633 62.6771 35.9986 62.7424 36.0338 62.7977C36.0539 62.8329 36.0741 62.863 36.0942 62.8982C36.1093 62.9233 36.1244 62.9485 36.1395 62.9736C36.9801 64.044 38.903 65.3004 41.284 66.1196C45.165 66.0442 48.1651 66.1648 50.4806 66.2151C51.3162 65.8834 52.1267 65.4411 52.8918 64.8582C59.8333 58.541 57.5279 54.9327 58.1068 49.4849L58.1168 49.4799Z" fill="#EAEAEA"/>
<path d="M78.584 26.3572C79.0169 26.3572 79.4498 26.4024 79.8525 26.508C79.4498 26.4075 79.0169 26.3572 78.584 26.3572Z" fill="#EAEAEA"/>
<path d="M36.1093 62.8982C36.1093 62.8982 36.1395 62.9485 36.1546 62.9736C36.1546 62.9736 36.1244 62.9233 36.1093 62.8982Z" fill="#EAEAEA"/>
<path d="M29.4698 51.1635C29.9178 51.3444 30.4866 52.063 31.1108 53.0732C30.4866 52.058 29.9128 51.3343 29.4698 51.1635Z" fill="#EAEAEA"/>
<path d="M23.0417 56.8524C23.0417 57.0484 23.0468 57.2444 23.0518 57.4404C23.0518 57.2444 23.0468 57.0484 23.0417 56.8524Z" fill="#EAEAEA"/>
<path d="M22.9964 55.1538C23.0014 55.3448 23.0065 55.5408 23.0115 55.7418C23.0065 55.5458 23.0014 55.3498 22.9964 55.1538Z" fill="#EAEAEA"/>
<path d="M23.0518 57.4404C23.0568 57.8274 23.0619 58.2093 23.0619 58.5963C23.0619 58.2144 23.0619 57.8274 23.0518 57.4404Z" fill="#EAEAEA"/>
<path d="M33.6226 57.8575C34.569 59.8276 35.4247 61.6971 35.9382 62.6117C35.4247 61.7021 34.574 59.8276 33.6226 57.8575Z" fill="#EAEAEA"/>
<path d="M33.4616 43.811C32.5454 44.1679 31.3726 44.3438 30.1091 44.4141C31.438 44.4091 32.5505 44.203 33.4616 43.811Z" fill="#EAEAEA"/>
<path d="M58.1168 42.434V30.7043C58.1168 29.1012 57.6789 27.8749 56.7577 27.1362C56.1285 26.6336 55.2728 26.3572 54.1754 26.3522C53.4254 26.3522 52.7911 26.4929 52.2626 26.7442C51.4522 27.1915 50.8783 27.9553 50.5561 28.7795C50.3749 29.3424 50.2843 29.9807 50.2894 30.6993C50.3095 33.4131 50.2894 40.8711 50.3095 51.1685C53.2039 48.4999 56.0782 45.5951 58.892 42.429H58.1168V42.434Z" fill="#EAEAEA"/>
<path d="M30.2903 33.4734C32.1327 33.594 33.7888 33.9358 34.6596 34.7901C33.7837 33.9358 32.1327 33.594 30.2903 33.4734Z" fill="#EAEAEA"/>
<path d="M35.9432 49.892C37.5389 49.4648 38.9181 48.7261 40.0558 47.7561C40.5138 47.3692 40.9266 46.942 41.3041 46.4847C41.6817 46.0273 42.0189 45.5348 42.3159 45.0122C42.4619 44.7508 42.6028 44.4845 42.7287 44.2081C43.1112 43.3839 43.3931 42.5044 43.5794 41.5797C43.7656 40.655 43.8462 39.685 43.826 38.69C43.8562 32.8101 40.987 28.9002 36.1697 27.4427C28.6694 29.0057 20.3688 32.6995 15.1538 38.7553C15.0028 48.6658 14.7109 64.6722 16.1556 64.9285C16.2311 65.024 16.3166 65.1145 16.4072 65.1949C16.5935 65.3607 16.8049 65.5014 17.0415 65.6221C17.1573 65.6824 17.2831 65.7326 17.414 65.7829C17.565 65.8382 17.7211 65.8834 17.8821 65.9186C18.4056 66.0442 18.9745 66.0844 19.5231 66.0392C19.6691 66.0291 19.8101 66.009 19.951 65.9839C20.1272 65.9537 20.2933 65.9135 20.4594 65.8633C20.6507 65.808 20.8369 65.7377 21.0131 65.6572C21.4108 65.4763 21.7531 65.2351 21.9897 64.9285C22.1054 64.823 22.2061 64.6873 22.3018 64.5215C22.3924 64.3556 22.4779 64.1596 22.5484 63.9335C22.6189 63.7123 22.6843 63.4611 22.7397 63.1897C22.7951 62.9183 22.8404 62.6268 22.8806 62.3203C22.9209 62.0087 22.9511 61.682 22.9763 61.3403C23.0115 60.8277 23.0367 60.2899 23.0518 59.7321C23.0619 59.3602 23.0669 58.9782 23.0669 58.5963C23.0669 58.2144 23.0669 57.8274 23.0568 57.4404C23.0568 57.2444 23.0518 57.0484 23.0468 56.8524C23.0367 56.4805 23.0316 56.1086 23.0216 55.7418C23.0165 55.5458 23.0115 55.3498 23.0065 55.1538C22.9964 54.802 22.9863 54.4552 22.9763 54.1185V54.0884C22.9461 53.0631 22.9209 52.1585 22.936 51.4751C22.941 51.1333 22.9561 50.8469 22.9863 50.6358C23.9679 50.681 25.5234 50.5805 26.9378 50.6458C27.9395 50.6911 28.8708 50.8217 29.4648 51.1534H29.4748V51.1635C29.9228 51.3394 30.4967 52.0631 31.1209 53.0732C31.9263 54.3748 32.8172 56.1539 33.6327 57.8575C34.5841 59.8326 35.4348 61.7021 35.9482 62.6117C38.0121 61.1996 40.1212 59.6668 42.2454 58.0133C42.1297 57.7922 42.0189 57.5661 41.9031 57.3299C40.393 54.5959 39.3158 50.8971 35.9533 49.887L35.9432 49.892ZM34.715 43.0371C34.4029 43.3638 33.97 43.61 33.4616 43.806C32.5555 44.198 31.438 44.4041 30.1091 44.4091C28.6241 44.4945 27.0385 44.4493 25.6442 44.4091H22.9763L22.9763 33.4584C24.6525 33.579 27.6627 33.3026 30.2903 33.4734C32.1327 33.594 33.7888 33.9358 34.6596 34.7901C34.6747 34.8052 34.6999 34.8203 34.715 34.8354C35.6512 35.549 36.1697 36.9009 36.2805 38.3281C36.4264 40.1625 35.8979 42.1275 34.715 43.0371Z" fill="#EAEAEA"/>
<path d="M41.8931 57.3349C42.0089 57.5711 42.1196 57.7972 42.2354 58.0184L42.2756 57.9882C42.1448 57.7771 42.0189 57.561 41.8931 57.3399V57.3349Z" fill="#EAEAEA"/>
<path d="M22.9763 44.4141H25.6442C24.6022 44.389 23.6659 44.3639 22.9763 44.4141Z" fill="#EAEAEA"/>
<path d="M50.2944 30.7043C50.2944 29.9857 50.38 29.3424 50.5612 28.7846C50.3095 29.4329 50.2139 30.1163 50.2944 30.7043Z" fill="#EAEAEA"/>
<path d="M52.2676 26.7492C52.7962 26.4979 53.4304 26.3572 54.1804 26.3572C53.4405 26.2919 52.8062 26.4527 52.2676 26.7492Z" fill="#EAEAEA"/>
<path d="M20.4594 65.8633C20.2933 65.9085 20.1272 65.9537 19.951 65.9839C20.1272 65.9537 20.2933 65.9135 20.4594 65.8633Z" fill="#EAEAEA"/>
<path d="M17.8821 65.9135C17.7211 65.8733 17.565 65.8331 17.414 65.7779C17.565 65.8331 17.7211 65.8784 17.8821 65.9135Z" fill="#EAEAEA"/>
<path d="M21.0081 65.6572C21.4058 65.4763 21.748 65.2351 21.9846 64.9285C21.743 65.2351 21.4007 65.4763 21.0081 65.6572Z" fill="#EAEAEA"/>
<path d="M74.7483 62.9736C75.1208 64.8833 76.4094 66.0543 78.6243 66.0492C81.262 66.0492 82.5254 64.3154 82.5103 61.6971C82.4298 61.3403 82.4248 59.712 82.4499 57.35C81.0858 60.5965 78.2971 62.8932 74.7483 62.9686V62.9736Z" fill="#C293F9"/>
<path d="M15.8082 28.3926C15.8988 28.2418 15.9995 28.1011 16.1153 27.9704C16.0045 28.1011 15.9039 28.2418 15.8082 28.3926Z" fill="#EAEAEA"/>
<path d="M16.5079 27.5985C16.6589 27.4779 16.82 27.3623 16.9962 27.2668C16.82 27.3623 16.6589 27.4729 16.5079 27.5985Z" fill="#EAEAEA"/>
<path d="M15.1488 31.1466C15.1488 30.8099 15.1639 30.4933 15.2042 30.1917C15.1639 30.4933 15.1488 30.8149 15.1488 31.1466Z" fill="#EAEAEA"/>
<path d="M36.1697 27.4427C34.7401 27.0105 33.1495 26.7844 31.4028 26.7995H19.0852C18.5869 26.7995 18.1389 26.8598 17.7362 26.9754C17.4694 27.0507 17.2227 27.1513 16.9962 27.2719C16.82 27.3674 16.6589 27.4779 16.5079 27.6036C16.367 27.7191 16.2361 27.8398 16.1153 27.9755C16.0045 28.1061 15.9039 28.2468 15.8082 28.3976C15.6975 28.5735 15.5968 28.7594 15.5163 28.9605C15.4156 29.2067 15.3351 29.4731 15.2747 29.7595C15.2445 29.9002 15.2193 30.046 15.1991 30.2018C15.1589 30.5033 15.1438 30.825 15.1438 31.1566C15.2545 31.6743 15.2143 34.7097 15.1538 38.7654C20.3688 32.6995 28.6694 29.0057 36.1697 27.4427Z" fill="#B3FFFD"/>
<path d="M107.113 33.6571H116.565C118.503 33.6571 120.168 33.9472 121.56 34.5274C122.964 35.1075 124.043 35.9662 124.798 37.1034C125.552 38.2406 125.929 39.6388 125.929 41.2982C125.929 42.6558 125.697 43.822 125.233 44.7968C124.78 45.7599 124.136 46.5663 123.301 47.2162C122.477 47.8544 121.508 48.3649 120.394 48.7479L118.74 49.6181H110.525L110.49 45.5452H116.599C117.516 45.5452 118.276 45.3827 118.88 45.0578C119.483 44.7329 119.936 44.2804 120.237 43.7002C120.551 43.12 120.707 42.447 120.707 41.6811C120.707 40.8689 120.556 40.1668 120.255 39.575C119.953 38.9832 119.495 38.5307 118.88 38.2174C118.265 37.9041 117.493 37.7474 116.565 37.7474H112.335V58.9998H107.113V33.6571ZM121.282 58.9998L115.503 47.7035L121.021 47.6687L126.869 58.7562V58.9998H121.282ZM149.346 43.9787V48.0516H136.118V43.9787H149.346ZM137.667 33.6571V58.9998H132.445V33.6571H137.667ZM153.071 33.6571V58.9998H147.866V33.6571H153.071ZM180.724 35.1714L171.951 58.9998H169.723L179.296 33.6571H180.846L180.724 35.1714ZM188.695 58.9998L179.906 35.1714L179.784 33.6571H181.333L190.923 58.9998H188.695ZM187.129 50.0533V51.8983H173.674V50.0533H187.129ZM205.794 48.6782H198.571V46.8506H205.794C207.303 46.8506 208.527 46.6069 209.467 46.1196C210.418 45.6206 211.109 44.9476 211.538 44.1005C211.979 43.2534 212.2 42.3019 212.2 41.246C212.2 40.2132 211.979 39.2617 211.538 38.3914C211.109 37.5211 210.418 36.8249 209.467 36.3027C208.527 35.769 207.303 35.5021 205.794 35.5021H199.319V58.9998H197.178V33.6571H205.794C207.651 33.6571 209.212 33.9762 210.476 34.6144C211.753 35.2526 212.716 36.1403 213.366 37.2775C214.016 38.4146 214.34 39.7259 214.34 41.2112C214.34 42.7661 214.016 44.1063 213.366 45.2319C212.716 46.3459 211.759 47.1987 210.494 47.7905C209.229 48.3823 207.662 48.6782 205.794 48.6782ZM230.256 48.6782H223.032V46.8506H230.256C231.764 46.8506 232.988 46.6069 233.928 46.1196C234.88 45.6206 235.57 44.9476 235.999 44.1005C236.44 43.2534 236.661 42.3019 236.661 41.246C236.661 40.2132 236.44 39.2617 235.999 38.3914C235.57 37.5211 234.88 36.8249 233.928 36.3027C232.988 35.769 231.764 35.5021 230.256 35.5021H223.781V58.9998H221.64V33.6571H230.256C232.112 33.6571 233.673 33.9762 234.938 34.6144C236.214 35.2526 237.177 36.1403 237.827 37.2775C238.477 38.4146 238.802 39.7259 238.802 41.2112C238.802 42.7661 238.477 44.1063 237.827 45.2319C237.177 46.3459 236.22 47.1987 234.955 47.7905C233.69 48.3823 232.124 48.6782 230.256 48.6782Z" fill="white"/>
<defs>
<linearGradient id="paint0_linear_510_1094" x1="18.7792" y1="-14.9716" x2="90.0037" y2="42.0004" gradientUnits="userSpaceOnUse">
<stop stop-color="#2DADC6"/>
<stop offset="0.506633" stop-color="#6F50BC"/>
<stop offset="1" stop-color="#59369E"/>
</linearGradient>
</defs>
</svg>
